<svg width="18" height="21" viewBox="0 0 18 21" fill="none" xmlns="http://www.w3.org/2000/svg">
<g filter="url(#filter0_d_669_311)">
<mask id="path-1-outside-1_669_311" maskUnits="userSpaceOnUse" x="3" y="-1" width="12" height="15" fill="black">
<rect fill="white" x="3" y="-1" width="12" height="15"/>
<path d="M9.072 12.16C8.31467 12.16 7.648 12.0373 7.072 11.792C6.496 11.536 6.04267 11.1787 5.712 10.72C5.38133 10.2507 5.216 9.68533 5.216 9.024C5.216 8.49067 5.33333 8.032 5.568 7.648C5.81333 7.264 6.16533 6.93867 6.624 6.672C7.09333 6.39467 7.65333 6.14933 8.304 5.936C8.96533 5.70133 9.51467 5.48267 9.952 5.28C10.3893 5.06667 10.72 4.83733 10.944 4.592C11.168 4.34667 11.28 4.032 11.28 3.648C11.28 3.08267 11.104 2.66667 10.752 2.4C10.4 2.13333 9.94133 2 9.376 2C8.68267 2 8.11733 2.14933 7.68 2.448C7.24267 2.736 6.98667 3.104 6.912 3.552C6.88 3.66933 6.82133 3.74933 6.736 3.792C6.65067 3.83467 6.57067 3.856 6.496 3.856H5.632C5.536 3.856 5.456 3.824 5.392 3.76C5.328 3.68533 5.296 3.61067 5.296 3.536C5.296 3.216 5.38133 2.89067 5.552 2.56C5.72267 2.21867 5.97867 1.904 6.32 1.616C6.66133 1.31733 7.088 1.08267 7.6 0.912C8.112 0.730666 8.704 0.639999 9.376 0.639999C10.0907 0.639999 10.6987 0.773333 11.2 1.04C11.7013 1.296 12.0853 1.648 12.352 2.096C12.6187 2.544 12.752 3.05067 12.752 3.616C12.752 4.16 12.6187 4.61333 12.352 4.976C12.096 5.33867 11.7333 5.65333 11.264 5.92C10.7947 6.176 10.2453 6.40533 9.616 6.608C8.90133 6.832 8.32533 7.056 7.888 7.28C7.46133 7.504 7.152 7.74933 6.96 8.016C6.77867 8.272 6.688 8.592 6.688 8.976C6.688 9.54133 6.89067 9.98933 7.296 10.32C7.70133 10.64 8.28267 10.8 9.04 10.8C9.648 10.8 10.144 10.72 10.528 10.56C10.912 10.3893 11.2053 10.1813 11.408 9.936C11.6107 9.68 11.7387 9.424 11.792 9.168C11.8347 9.08267 11.8827 9.008 11.936 8.944C12 8.88 12.0907 8.848 12.208 8.848H13.04C13.136 8.848 13.216 8.88533 13.28 8.96C13.344 9.024 13.376 9.09867 13.376 9.184C13.376 9.696 13.2107 10.1813 12.88 10.64C12.5493 11.088 12.0587 11.456 11.408 11.744C10.768 12.0213 9.98933 12.16 9.072 12.16ZM5.024 7.824C4.90667 7.824 4.816 7.792 4.752 7.728C4.688 7.65333 4.656 7.56267 4.656 7.456V7.2C4.656 7.09333 4.688 7.008 4.752 6.944C4.816 6.86933 4.90667 6.832 5.024 6.832H13.008C13.1147 6.832 13.2 6.86933 13.264 6.944C13.3387 7.008 13.376 7.09333 13.376 7.2V7.456C13.376 7.56267 13.3387 7.65333 13.264 7.728C13.2 7.792 13.1147 7.824 13.008 7.824H5.024ZM5.024 6.064C4.90667 6.064 4.816 6.032 4.752 5.968C4.688 5.89333 4.656 5.80267 4.656 5.696V5.44C4.656 5.33333 4.688 5.248 4.752 5.184C4.816 5.10933 4.90667 5.072 5.024 5.072H13.008C13.1147 5.072 13.2 5.10933 13.264 5.184C13.3387 5.248 13.376 5.33333 13.376 5.44V5.696C13.376 5.80267 13.3387 5.89333 13.264 5.968C13.2 6.032 13.1147 6.064 13.008 6.064H5.024Z"/>
</mask>
<path d="M9.072 12.16C8.31467 12.16 7.648 12.0373 7.072 11.792C6.496 11.536 6.04267 11.1787 5.712 10.72C5.38133 10.2507 5.216 9.68533 5.216 9.024C5.216 8.49067 5.33333 8.032 5.568 7.648C5.81333 7.264 6.16533 6.93867 6.624 6.672C7.09333 6.39467 7.65333 6.14933 8.304 5.936C8.96533 5.70133 9.51467 5.48267 9.952 5.28C10.3893 5.06667 10.72 4.83733 10.944 4.592C11.168 4.34667 11.28 4.032 11.28 3.648C11.28 3.08267 11.104 2.66667 10.752 2.4C10.4 2.13333 9.94133 2 9.376 2C8.68267 2 8.11733 2.14933 7.68 2.448C7.24267 2.736 6.98667 3.104 6.912 3.552C6.88 3.66933 6.82133 3.74933 6.736 3.792C6.65067 3.83467 6.57067 3.856 6.496 3.856H5.632C5.536 3.856 5.456 3.824 5.392 3.76C5.328 3.68533 5.296 3.61067 5.296 3.536C5.296 3.216 5.38133 2.89067 5.552 2.56C5.72267 2.21867 5.97867 1.904 6.32 1.616C6.66133 1.31733 7.088 1.08267 7.6 0.912C8.112 0.730666 8.704 0.639999 9.376 0.639999C10.0907 0.639999 10.6987 0.773333 11.2 1.04C11.7013 1.296 12.0853 1.648 12.352 2.096C12.6187 2.544 12.752 3.05067 12.752 3.616C12.752 4.16 12.6187 4.61333 12.352 4.976C12.096 5.33867 11.7333 5.65333 11.264 5.92C10.7947 6.176 10.2453 6.40533 9.616 6.608C8.90133 6.832 8.32533 7.056 7.888 7.28C7.46133 7.504 7.152 7.74933 6.96 8.016C6.77867 8.272 6.688 8.592 6.688 8.976C6.688 9.54133 6.89067 9.98933 7.296 10.32C7.70133 10.64 8.28267 10.8 9.04 10.8C9.648 10.8 10.144 10.72 10.528 10.56C10.912 10.3893 11.2053 10.1813 11.408 9.936C11.6107 9.68 11.7387 9.424 11.792 9.168C11.8347 9.08267 11.8827 9.008 11.936 8.944C12 8.88 12.0907 8.848 12.208 8.848H13.04C13.136 8.848 13.216 8.88533 13.28 8.96C13.344 9.024 13.376 9.09867 13.376 9.184C13.376 9.696 13.2107 10.1813 12.88 10.64C12.5493 11.088 12.0587 11.456 11.408 11.744C10.768 12.0213 9.98933 12.16 9.072 12.16ZM5.024 7.824C4.90667 7.824 4.816 7.792 4.752 7.728C4.688 7.65333 4.656 7.56267 4.656 7.456V7.2C4.656 7.09333 4.688 7.008 4.752 6.944C4.816 6.86933 4.90667 6.832 5.024 6.832H13.008C13.1147 6.832 13.2 6.86933 13.264 6.944C13.3387 7.008 13.376 7.09333 13.376 7.2V7.456C13.376 7.56267 13.3387 7.65333 13.264 7.728C13.2 7.792 13.1147 7.824 13.008 7.824H5.024ZM5.024 6.064C4.90667 6.064 4.816 6.032 4.752 5.968C4.688 5.89333 4.656 5.80267 4.656 5.696V5.44C4.656 5.33333 4.688 5.248 4.752 5.184C4.816 5.10933 4.90667 5.072 5.024 5.072H13.008C13.1147 5.072 13.2 5.10933 13.264 5.184C13.3387 5.248 13.376 5.33333 13.376 5.44V5.696C13.376 5.80267 13.3387 5.89333 13.264 5.968C13.2 6.032 13.1147 6.064 13.008 6.064H5.024Z" fill="#C2C2C2"/>
<path d="M7.072 11.792L6.66586 12.7058L6.67298 12.709L6.68014 12.712L7.072 11.792ZM5.712 10.72L4.89447 11.296L4.90082 11.3048L5.712 10.72ZM5.568 7.648L4.7253 7.10961L4.71993 7.11803L4.71472 7.12655L5.568 7.648ZM6.624 6.672L7.12663 7.53653L7.13273 7.53293L6.624 6.672ZM8.304 5.936L8.61555 6.88623L8.62703 6.88247L8.63841 6.87843L8.304 5.936ZM9.952 5.28L10.3725 6.18731L10.3815 6.18313L10.3904 6.17877L9.952 5.28ZM7.68 2.448L8.22999 3.28317L8.23702 3.27854L8.24396 3.2738L7.68 2.448ZM6.912 3.552L7.87676 3.81512L7.89008 3.76631L7.89839 3.7164L6.912 3.552ZM5.392 3.76L4.63275 4.41079L4.65774 4.43995L4.68489 4.4671L5.392 3.76ZM5.552 2.56L6.44069 3.01868L6.44643 3.00721L5.552 2.56ZM6.32 1.616L6.96487 2.38029L6.97174 2.37449L6.9785 2.36858L6.32 1.616ZM7.6 0.912L7.91623 1.86068L7.92507 1.85774L7.93385 1.85463L7.6 0.912ZM11.2 1.04L10.7304 1.92287L10.7378 1.9268L10.7452 1.9306L11.2 1.04ZM12.352 2.096L11.4927 2.60748L11.4927 2.60748L12.352 2.096ZM12.352 4.976L11.5463 4.38361L11.5406 4.39141L11.535 4.39932L12.352 4.976ZM11.264 5.92L11.7429 6.7979L11.7505 6.79374L11.758 6.78946L11.264 5.92ZM9.616 6.608L9.9151 7.56226L9.92253 7.55986L9.616 6.608ZM7.888 7.28L7.4321 6.38991L7.42317 6.3946L7.888 7.28ZM6.96 8.016L6.14844 7.43168L6.14398 7.43798L6.96 8.016ZM7.296 10.32L6.66387 11.0949L6.67007 11.0999L6.67636 11.1049L7.296 10.32ZM10.528 10.56L10.9126 11.4831L10.9234 11.4786L10.9341 11.4738L10.528 10.56ZM11.408 9.936L12.179 10.5729L12.1856 10.5649L12.192 10.5567L11.408 9.936ZM11.792 9.168L10.8976 8.72079L10.8395 8.83693L10.813 8.96405L11.792 9.168ZM11.936 8.944L11.2289 8.23689L11.1968 8.26897L11.1678 8.30382L11.936 8.944ZM13.28 8.96L12.5207 9.61079L12.5457 9.63995L12.5729 9.66711L13.28 8.96ZM12.88 10.64L13.6846 11.2339L13.6912 11.2248L12.88 10.64ZM11.408 11.744L11.8056 12.6616L11.8127 12.6584L11.408 11.744ZM4.752 7.728L3.99274 8.37879L4.01774 8.40795L4.04489 8.43511L4.752 7.728ZM4.752 6.944L5.45911 7.65111L5.48626 7.62395L5.51126 7.59479L4.752 6.944ZM13.264 6.944L12.5047 7.59479L12.5548 7.6532L12.6132 7.70325L13.264 6.944ZM13.264 7.728L13.9711 8.43511L13.9711 8.4351L13.264 7.728ZM4.752 5.968L3.99274 6.61879L4.01774 6.64795L4.04489 6.67511L4.752 5.968ZM4.752 5.184L5.45911 5.89111L5.48626 5.86395L5.51126 5.83479L4.752 5.184ZM13.264 5.184L12.5047 5.83479L12.5548 5.8932L12.6132 5.94325L13.264 5.184ZM13.264 5.968L13.9711 6.67511L13.9711 6.67511L13.264 5.968ZM9.072 11.16C8.42174 11.16 7.89287 11.0547 7.46386 10.872L6.68014 12.712C7.40313 13.02 8.20759 13.16 9.072 13.16V11.16ZM7.47814 10.8782C7.04488 10.6856 6.7388 10.4343 6.52318 10.1352L4.90082 11.3048C5.34653 11.923 5.94712 12.3864 6.66586 12.7058L7.47814 10.8782ZM6.52948 10.144C6.33496 9.86796 6.216 9.51151 6.216 9.024H4.216C4.216 9.85916 4.4277 10.6334 4.89452 11.296L6.52948 10.144ZM6.216 9.024C6.216 8.64027 6.29905 8.36947 6.42128 8.16945L4.71472 7.12655C4.36762 7.69453 4.216 8.34107 4.216 9.024H6.216ZM6.4107 8.18639C6.55719 7.9571 6.78302 7.73628 7.12662 7.53651L6.12138 5.80749C5.54765 6.14106 5.06948 6.5709 4.7253 7.10961L6.4107 8.18639ZM7.13273 7.53293C7.5263 7.30036 8.01701 7.08247 8.61555 6.88623L7.99245 4.98577C7.28966 5.21619 6.66036 5.48897 6.11527 5.81107L7.13273 7.53293ZM8.63841 6.87843C9.31709 6.63761 9.89752 6.40741 10.3725 6.18731L9.53154 4.37269C9.13182 4.55793 8.61358 4.76506 7.96959 4.99357L8.63841 6.87843ZM10.3904 6.17877C10.8931 5.93358 11.3437 5.63731 11.6825 5.26627L10.2055 3.91773C10.0963 4.03736 9.88562 4.19975 9.51358 4.38123L10.3904 6.17877ZM11.6825 5.26627C12.1008 4.80814 12.28 4.23997 12.28 3.648H10.28C10.28 3.82403 10.2352 3.88519 10.2055 3.91773L11.6825 5.26627ZM12.28 3.648C12.28 2.86593 12.0253 2.11006 11.3559 1.60291L10.1481 3.19709C10.1827 3.22328 10.28 3.2994 10.28 3.648H12.28ZM11.3559 1.60291C10.7867 1.1717 10.0978 1 9.376 1V3C9.7849 3 10.0133 3.09497 10.1481 3.19709L11.3559 1.60291ZM9.376 1C8.54296 1 7.76398 1.1797 7.11604 1.6222L8.24396 3.2738C8.47068 3.11897 8.82237 3 9.376 3V1ZM7.13001 1.61283C6.49919 2.02824 6.05319 2.62211 5.92561 3.3876L7.89839 3.7164C7.92015 3.58589 7.98614 3.44375 8.22999 3.28317L7.13001 1.61283ZM5.94724 3.28888C5.95642 3.25521 5.98017 3.18695 6.0376 3.10864C6.09835 3.02579 6.18361 2.95016 6.28879 2.89757L7.18321 4.68643C7.58921 4.48343 7.79188 4.12636 7.87676 3.81512L5.94724 3.28888ZM6.28879 2.89757C6.3049 2.88952 6.3784 2.856 6.496 2.856V4.856C6.76293 4.856 6.99643 4.77982 7.18321 4.68643L6.28879 2.89757ZM6.496 2.856H5.632V4.856H6.496V2.856ZM5.632 2.856C5.69672 2.856 5.78052 2.86717 5.87139 2.90352C5.96344 2.94034 6.04027 2.99405 6.09911 3.0529L4.68489 4.4671C4.94869 4.7309 5.28864 4.856 5.632 4.856V2.856ZM6.15126 3.10921C6.19263 3.15748 6.296 3.305 6.296 3.536H4.296C4.296 3.91634 4.46337 4.21318 4.63275 4.41079L6.15126 3.10921ZM6.296 3.536C6.296 3.39972 6.33121 3.23063 6.44062 3.01864L4.66338 2.10136C4.43146 2.5507 4.296 3.03228 4.296 3.536H6.296ZM6.44643 3.00721C6.54687 2.80633 6.70993 2.5954 6.96487 2.38029L5.67513 0.851708C5.2474 1.2126 4.89847 1.631 4.65757 2.11279L6.44643 3.00721ZM6.9785 2.36858C7.20282 2.1723 7.50672 1.99718 7.91623 1.86068L7.28377 -0.0366838C6.66928 0.168148 6.11985 0.462361 5.6615 0.863423L6.9785 2.36858ZM7.93385 1.85463C8.31664 1.71906 8.79178 1.64 9.376 1.64V-0.360001C8.61622 -0.360001 7.90736 -0.257723 7.26615 -0.0306274L7.93385 1.85463ZM9.376 1.64C9.96837 1.64 10.4063 1.75048 10.7304 1.92287L11.6696 0.157126C10.991 -0.203812 10.213 -0.360001 9.376 -0.360001V1.64ZM10.7452 1.9306C11.0926 2.10799 11.3302 2.33439 11.4927 2.60748L13.2113 1.58452C12.8405 0.961612 12.3101 0.484007 11.6548 0.149394L10.7452 1.9306ZM11.4927 2.60748C11.6596 2.88781 11.752 3.21501 11.752 3.616H13.752C13.752 2.88632 13.5778 2.20019 13.2113 1.58452L11.4927 2.60748ZM11.752 3.616C11.752 3.99236 11.6622 4.22599 11.5463 4.38361L13.1577 5.56839C13.5751 5.00067 13.752 4.32764 13.752 3.616H11.752ZM11.535 4.39932C11.3802 4.61872 11.1386 4.84113 10.77 5.05054L11.758 6.78946C12.3281 6.46554 12.8118 6.05861 13.169 5.55268L11.535 4.39932ZM10.7851 5.0421C10.3819 5.26205 9.89255 5.46837 9.30947 5.65614L9.92253 7.55986C10.5981 7.3423 11.2074 7.08995 11.7429 6.7979L10.7851 5.0421ZM9.31691 5.65377C8.57314 5.8869 7.93865 6.13051 7.43212 6.38996L8.34388 8.17004C8.71201 7.98148 9.22952 7.7771 9.91509 7.56223L9.31691 5.65377ZM7.42317 6.3946C6.91832 6.65965 6.46342 6.99426 6.14847 7.4317L7.77153 8.6003C7.84058 8.50441 8.00435 8.34835 8.35283 8.1654L7.42317 6.3946ZM6.14398 7.43798C5.81834 7.89771 5.688 8.43202 5.688 8.976H7.688C7.688 8.75198 7.739 8.64629 7.77602 8.59402L6.14398 7.43798ZM5.688 8.976C5.688 9.81406 6.00509 10.5574 6.66387 11.0949L7.92813 9.54513C7.77625 9.42123 7.688 9.26861 7.688 8.976H5.688ZM6.67636 11.1049C7.3239 11.6161 8.15902 11.8 9.04 11.8V9.8C8.40632 9.8 8.07877 9.6639 7.91564 9.53512L6.67636 11.1049ZM9.04 11.8C9.7243 11.8 10.3641 11.7116 10.9126 11.4831L10.1434 9.63692C9.92388 9.72838 9.5717 9.8 9.04 9.8V11.8ZM10.9341 11.4738C11.4161 11.2596 11.8514 10.9694 12.179 10.5729L10.637 9.29912C10.5593 9.39323 10.4079 9.51905 10.1219 9.64619L10.9341 11.4738ZM12.192 10.5567C12.4678 10.2084 12.679 9.81324 12.771 9.37195L10.813 8.96405C10.7983 9.03476 10.7536 9.15156 10.624 9.3153L12.192 10.5567ZM12.6864 9.61521C12.6995 9.5891 12.7068 9.58112 12.7042 9.58418L11.1678 8.30382C11.0586 8.43488 10.9699 8.57623 10.8976 8.72079L12.6864 9.61521ZM12.6431 9.65111C12.4686 9.8256 12.2739 9.848 12.208 9.848V7.848C11.9075 7.848 11.5314 7.93439 11.2289 8.23689L12.6431 9.65111ZM12.208 9.848H13.04V7.848H12.208V9.848ZM13.04 9.848C12.9548 9.848 12.8528 9.83056 12.7491 9.78218C12.6461 9.7341 12.5708 9.66918 12.5207 9.61079L14.0393 8.30921C13.7906 8.01911 13.436 7.848 13.04 7.848V9.848ZM12.5729 9.66711C12.5252 9.6194 12.4724 9.55015 12.4329 9.45792C12.3928 9.36453 12.376 9.2698 12.376 9.184H14.376C14.376 8.81611 14.226 8.49181 13.9871 8.25289L12.5729 9.66711ZM12.376 9.184C12.376 9.4642 12.2902 9.74817 12.0688 10.0552L13.6912 11.2248C14.1312 10.6145 14.376 9.9278 14.376 9.184H12.376ZM12.0754 10.0461C11.8728 10.3207 11.5383 10.5927 11.0033 10.8296L11.8127 12.6584C12.579 12.3193 13.2259 11.8553 13.6846 11.2339L12.0754 10.0461ZM11.0104 10.8264C10.5287 11.0352 9.89359 11.16 9.072 11.16V13.16C10.0851 13.16 11.0073 13.0075 11.8056 12.6616L11.0104 10.8264ZM5.024 6.824C5.08988 6.824 5.28461 6.84639 5.45911 7.02089L4.04489 8.43511C4.34739 8.7376 4.72346 8.824 5.024 8.824V6.824ZM5.51126 7.07721C5.55773 7.13143 5.59695 7.19741 5.62299 7.27118C5.64862 7.34379 5.656 7.40829 5.656 7.456H3.656C3.656 7.77959 3.75978 8.107 3.99274 8.37879L5.51126 7.07721ZM5.656 7.456V7.2H3.656V7.456H5.656ZM5.656 7.2C5.656 7.24653 5.64894 7.32016 5.61633 7.40712C5.58256 7.49716 5.52877 7.58145 5.45911 7.65111L4.04489 6.23689C3.76016 6.52163 3.656 6.87908 3.656 7.2H5.656ZM5.51126 7.59479C5.4408 7.67699 5.34989 7.74303 5.24875 7.78468C5.15205 7.8245 5.07081 7.832 5.024 7.832V5.832C4.67674 5.832 4.28367 5.95379 3.99274 6.29321L5.51126 7.59479ZM5.024 7.832H13.008V5.832H5.024V7.832ZM13.008 7.832C12.9433 7.832 12.852 7.82025 12.7512 7.77616C12.6482 7.73112 12.5651 7.66523 12.5047 7.59479L14.0233 6.29321C13.7518 5.97651 13.3786 5.832 13.008 5.832V7.832ZM12.6132 7.70325C12.5428 7.64288 12.4769 7.55976 12.4318 7.45682C12.3877 7.35602 12.376 7.26469 12.376 7.2H14.376C14.376 6.82937 14.2315 6.4562 13.9148 6.18475L12.6132 7.70325ZM12.376 7.2V7.456H14.376V7.2H12.376ZM12.376 7.456C12.376 7.39027 12.388 7.30894 12.4233 7.22325C12.4587 7.13736 12.5081 7.06966 12.5569 7.02089L13.9711 8.4351C14.2354 8.17077 14.376 7.82485 14.376 7.456H12.376ZM12.5569 7.02089C12.6266 6.95123 12.7108 6.89744 12.8009 6.86367C12.8878 6.83106 12.9615 6.824 13.008 6.824V8.824C13.3289 8.824 13.6864 8.71984 13.9711 8.43511L12.5569 7.02089ZM13.008 6.824H5.024V8.824H13.008V6.824ZM5.024 5.064C5.08988 5.064 5.28461 5.08639 5.45911 5.26089L4.04489 6.67511C4.34739 6.97761 4.72346 7.064 5.024 7.064V5.064ZM5.51126 5.31721C5.55773 5.37143 5.59695 5.43741 5.62299 5.51118C5.64862 5.58379 5.656 5.64829 5.656 5.696H3.656C3.656 6.01959 3.75978 6.347 3.99274 6.61879L5.51126 5.31721ZM5.656 5.696V5.44H3.656V5.696H5.656ZM5.656 5.44C5.656 5.48653 5.64894 5.56016 5.61633 5.64712C5.58256 5.73716 5.52877 5.82145 5.45911 5.89111L4.04489 4.47689C3.76016 4.76163 3.656 5.11908 3.656 5.44H5.656ZM5.51126 5.83479C5.4408 5.91699 5.34989 5.98303 5.24875 6.02468C5.15205 6.0645 5.07081 6.072 5.024 6.072V4.072C4.67674 4.072 4.28367 4.19379 3.99274 4.53321L5.51126 5.83479ZM5.024 6.072H13.008V4.072H5.024V6.072ZM13.008 6.072C12.9433 6.072 12.852 6.06025 12.7512 6.01616C12.6482 5.97112 12.5651 5.90523 12.5047 5.83479L14.0233 4.53321C13.7518 4.21651 13.3786 4.072 13.008 4.072V6.072ZM12.6132 5.94325C12.5428 5.88288 12.4769 5.79976 12.4318 5.69682C12.3877 5.59602 12.376 5.50469 12.376 5.44H14.376C14.376 5.06937 14.2315 4.6962 13.9148 4.42474L12.6132 5.94325ZM12.376 5.44V5.696H14.376V5.44H12.376ZM12.376 5.696C12.376 5.63027 12.388 5.54894 12.4233 5.46325C12.4587 5.37736 12.5081 5.30966 12.5569 5.26089L13.9711 6.67511C14.2354 6.41077 14.376 6.06485 14.376 5.696H12.376ZM12.5569 5.26089C12.6266 5.19123 12.7108 5.13743 12.8009 5.10367C12.8878 5.07106 12.9615 5.064 13.008 5.064V7.064C13.3289 7.064 13.6864 6.95984 13.9711 6.67511L12.5569 5.26089ZM13.008 5.064H5.024V7.064H13.008V5.064Z" fill="black" mask="url(#path-1-outside-1_669_311)"/>
</g>
<defs>
<filter id="filter0_d_669_311" x="0.656006" y="0.640015" width="16.72" height="19.52" filterUnits="userSpaceOnUse" color-interpolation-filters="sRGB">
<feFlood flood-opacity="0" result="BackgroundImageFix"/>
<feColorMatrix in="SourceAlpha" type="matrix" values="0 0 0 0 0 0 0 0 0 0 0 0 0 0 0 0 0 0 127 0" result="hardAlpha"/>
<feOffset dy="4"/>
<feGaussianBlur stdDeviation="2"/>
<feComposite in2="hardAlpha" operator="out"/>
<feColorMatrix type="matrix" values="0 0 0 0 0 0 0 0 0 0 0 0 0 0 0 0 0 0 0.25 0"/>
<feBlend mode="normal" in2="BackgroundImageFix" result="effect1_dropShadow_669_311"/>
<feBlend mode="normal" in="SourceGraphic" in2="effect1_dropShadow_669_311" result="shape"/>
</filter>
</defs>
</svg>
